# xmcd CD database file
#
# Track frame offsets:
#	187
#	14577
#	29557
#	46690
#	61330
#	76137
#	91100
#	104225
#
# Disc length: 1561 seconds
#
# Revision: 0
# Processed by: cddbd v1.5.2PL0 Copyright (c) Steve Scherf et al.
# Submitted via: CDex 1.70beta3
#
DISCID=5e061708
DTITLE=Wade Legge - Wade Legge Trio
DYEAR=1953
DGENRE=Jazz
TTITLE0=Perdido
TTITLE1=Dream A Little Dream Of Me
TTITLE2=Wade Leg's Blues
TTITLE3=A Swedish Folksong
TTITLE4=Dance Of The Infidels
TTITLE5=Ain't You Glad, You're You
TTITLE6=These Foolish Things
TTITLE7=Why Don't You Believe Me
EXTD=YEAR: 1953
EXTT0=
EXTT1=
EXTT2=
EXTT3=
EXTT4=
EXTT5=
EXTT6=
EXTT7=
PLAYORDER=
